# xmcd
#
# Track frame offsets:
#	150
#	13224
#	29084
#	44614
#	60407
#	75227
#	86396
#	100634
#	118191
#	136561
#	151006
#	168876
#	186708
#	205670
#	233671
#	246491
#	267048
#	286262
#	303734
#	321761
#	338145
#
# Disc length: 4702 seconds
#
# Revision: 3
# Processed by: cddbd v1.5.2PL0 Copyright (c) Steve Scherf et al.
# Submitted via: audiograbber 1.83.01
#
DISCID=18125c15
DTITLE=ZZ Top - Eliminator
DYEAR=1983
DGENRE=Country and Blues
TTITLE0=Waitin' For The Bus
TTITLE1=Jesus Just Left Chicago
TTITLE2=Beer Drinkers and Hell Raisers
TTITLE3=Master Of Sparks
TTITLE4=Hot, Blue And Righteous
TTITLE5=Move Me Down On The Line
TTITLE6=Precious And Grace
TTITLE7=La Grange
TTITLE8=Shiek
TTITLE9=Have You Heard?
TTITLE10=Gimme All Your Lovin'
TTITLE11=Got Me Under Pressure
TTITLE12=Sharp Dressed Man
TTITLE13=I Need You Tonight
TTITLE14=I Got The Six
TTITLE15=Legs
TTITLE16=Thug
TTITLE17=TV Dinners
TTITLE18=Dirty Dog
TTITLE19=If I Could Only Flag Her Down
TTITLE20=Bad Girl
EXTD=
EXTT0=
EXTT1=
EXTT2=
EXTT3=
EXTT4=
EXTT5=
EXTT6=
EXTT7=
EXTT8=
EXTT9=
EXTT10=
EXTT11=
EXTT12=
EXTT13=
EXTT14=
EXTT15=
EXTT16=
EXTT17=
EXTT18=
EXTT19=
EXTT20=
PLAYORDER=
